<svg xmlns="http://www.w3.org/2000/svg" width="410" height="404" viewBox="0 0 410 404" fill="none">
  <g clip-path="url(#clip0)">
    <path d="M399.641 59.5246L215.642 388.525C211.253 396.38 199.747 396.38 195.358 388.525L11.3582 59.5246C6.41223 50.6279 12.9352 39.75 23.0001 39.75H388C398.065 39.75 404.588 50.6279 399.641 59.5246Z" fill="url(#paint0_linear)"/>
    <path d="M291.333 0H118.667C112.627 0 108 4.62674 108 10.6667V21.3333C108 27.3733 112.627 32 118.667 32H291.333C297.373 32 302 27.3733 302 21.3333V10.6667C302 4.62674 297.373 0 291.333 0Z" fill="url(#paint1_linear)"/>
    <path d="M108 64H302V96H108V64Z" fill="url(#paint2_linear)"/>
  </g>
  <defs>
    <linearGradient id="paint0_linear" x1="205" y1="39.75" x2="205" y2="404" gradientUnits="userSpaceOnUse">
      <stop stop-color="#41D1FF"/>
      <stop offset="1" stop-color="#BD34FE"/>
    </linearGradient>
    <linearGradient id="paint1_linear" x1="205" y1="0" x2="205" y2="32" gradientUnits="userSpaceOnUse">
      <stop stop-color="#FFEA83"/>
      <stop offset="0.08" stop-color="#FFDD35"/>
      <stop offset="1" stop-color="#FFA800"/>
    </linearGradient>
    <linearGradient id="paint2_linear" x1="205" y1="64" x2="205" y2="96" gradientUnits="userSpaceOnUse">
      <stop stop-color="#FFEA83"/>
      <stop offset="0.08" stop-color="#FFDD35"/>
      <stop offset="1" stop-color="#FFA800"/>
    </linearGradient>
    <clipPath id="clip0">
      <rect width="410" height="404" fill="white"/>
    </clipPath>
  </defs>
</svg>
